<?xml version="1.0" encoding="utf-8"?>
<!-- Generator: Adobe Illustrator 16.0.0, SVG Export Plug-In . SVG Version: 6.00 Build 0)  -->
<!DOCTYPE svg PUBLIC "-//W3C//DTD SVG 1.1//EN" "http://www.w3.org/Graphics/SVG/1.1/DTD/svg11.dtd">
<svg version="1.1" id="Layer_1" xmlns="http://www.w3.org/2000/svg" xmlns:xlink="http://www.w3.org/1999/xlink" x="0px" y="0px"
	 width="32px" height="32px" viewBox="0 0 32 32" enable-background="new 0 0 32 32" xml:space="preserve">
<path fill="#404040" d="M26.85,18.908c0-1.061-0.139-1.983-0.41-2.773c-0.273-0.79-0.648-1.443-1.125-1.962
	c-0.479-0.519-1.043-0.902-1.689-1.15c-0.648-0.248-1.359-0.372-2.131-0.372c-0.615,0-1.15,0.074-1.605,0.22
	c-0.453,0.147-0.848,0.339-1.176,0.575c-0.33,0.237-0.609,0.49-0.836,0.761c-0.229,0.271-0.42,0.519-0.58,0.745v-1.962h-4.64
	c0.023,0.383,0.033,1.127,0.033,2.232v4.194c0,0-0.01,2.491-0.033,7.475h4.64v-7.778c0-0.204,0.012-0.402,0.035-0.594
	c0.02-0.191,0.066-0.367,0.135-0.522c0.182-0.406,0.461-0.79,0.836-1.15s0.893-0.542,1.553-0.542c0.842,0,1.445,0.288,1.809,0.863
	c0.363,0.574,0.547,1.335,0.547,2.282v7.441h4.639V18.908z M7.744,11.096c0.82,0,1.468-0.238,1.945-0.71
	c0.478-0.474,0.705-1.038,0.683-1.691c0-0.677-0.233-1.246-0.7-1.708C9.206,6.523,8.574,6.292,7.779,6.292
	c-0.796,0-1.433,0.231-1.91,0.694C5.391,7.449,5.152,8.017,5.152,8.694c0,0.654,0.227,1.217,0.682,1.691
	c0.455,0.473,1.08,0.71,1.876,0.71H7.744L7.744,11.096z M10.064,12.989H5.425v13.901h4.639V12.989z M31.182,0.001
	c0.227,0,0.422,0.073,0.58,0.22C31.922,0.368,32,0.554,32,0.78v30.439c0,0.228-0.078,0.412-0.238,0.559
	c-0.158,0.147-0.354,0.221-0.58,0.221H0.819c-0.227,0-0.421-0.073-0.581-0.221C0.08,31.631,0,31.446,0,31.219V0.78
	C0,0.554,0.08,0.368,0.239,0.221c0.16-0.146,0.354-0.22,0.581-0.22H31.182L31.182,0.001z"/>
<g>
</g>
<g>
</g>
<g>
</g>
<g>
</g>
<g>
</g>
<g>
</g>
<g>
</g>
<g>
</g>
<g>
</g>
<g>
</g>
<g>
</g>
<g>
</g>
<g>
</g>
<g>
</g>
<g>
</g>
</svg>
