<?xml version="1.0" encoding="utf-8"?>
<!-- Generator: Adobe Illustrator 16.0.0, SVG Export Plug-In . SVG Version: 6.00 Build 0)  -->
<!DOCTYPE svg PUBLIC "-//W3C//DTD SVG 1.1//EN" "http://www.w3.org/Graphics/SVG/1.1/DTD/svg11.dtd">
<svg version="1.1" id="Layer_1" xmlns="http://www.w3.org/2000/svg" xmlns:xlink="http://www.w3.org/1999/xlink" x="0px" y="0px"
	 width="32px" height="32px" viewBox="0 0 32 32" enable-background="new 0 0 32 32" xml:space="preserve">
<path fill="#646464" d="M8.042,24.906c-0.42,0-2.922,0.092-4.875,0.746C2.497,25.898,0.959,26.485,0,27.79v2.379
	C0,31.798,1.32,32,2.947,32H15.01c0.069-0.235,0.194-0.379,0.19-0.842c-0.027-2.383-2.55-3.679-6.085-6.199
	C8.745,24.911,8.505,24.906,8.042,24.906z M0,16.843v8.264c2.105-1.686,5.76-1.385,7.537-1.506c-0.652-0.842-1.4-1.723-1.4-3.169
	c0-0.793,0.231-1.26,0.463-1.82c-0.512,0.046-1.019,0.096-1.485,0.096C3.006,18.705,1.274,17.901,0,16.843z M5.989,4.105
	c-1.209,0-2.518,0.604-3.263,1.538C1.937,6.622,1.821,7.88,1.821,9.095c0,3.125,1.645,7.748,5.642,7.748
	c1.161,0,2.35-0.296,3.116-1.168c0.872-0.999,1.21-2.317,1.21-2.989C11.79,9.326,9.846,4.105,5.989,4.105z M2.947,0
	C1.32,0,0,0.843,0,2.947v2.527c0.116-0.112,0.255-0.241,0.378-0.348c2.65-2.193,5.553-2.554,7.99-2.6h9.821l-2.61,2.106h-2.842
	c1.141,0.989,2.842,2.754,2.842,5.904c0,3.452-1.816,5.096-3.769,6.632c-0.604,0.605-1.306,1.258-1.306,2.285
	c0,1.024,0.7,1.589,1.21,2.01l1.674,1.296c2.045,1.728,4.717,3.727,4.717,6.947c0,0.862-0.1,1.64-0.381,2.294h11.328
	C30.681,32,32,31.798,32,30.169V10.895h-5.895v5.948h-2.526v-5.948h-5.895V8.422h5.895V2.526h2.526v5.896H32V2.947
	C32,0.843,30.681,0,29.054,0H2.947z"/>
<g>
</g>
<g>
</g>
<g>
</g>
<g>
</g>
<g>
</g>
<g>
</g>
<g>
</g>
<g>
</g>
<g>
</g>
<g>
</g>
<g>
</g>
<g>
</g>
<g>
</g>
<g>
</g>
<g>
</g>
</svg>
