<?xml version="1.0" encoding="utf-8"?>
<!-- Generator: Adobe Illustrator 16.0.0, SVG Export Plug-In . SVG Version: 6.00 Build 0)  -->
<!DOCTYPE svg PUBLIC "-//W3C//DTD SVG 1.1//EN" "http://www.w3.org/Graphics/SVG/1.1/DTD/svg11.dtd">
<svg version="1.1" id="Layer_1" xmlns="http://www.w3.org/2000/svg" xmlns:xlink="http://www.w3.org/1999/xlink" x="0px" y="0px"
	 width="32px" height="32px" viewBox="0 0 32 32" enable-background="new 0 0 32 32" xml:space="preserve">
<path fill="#646464" d="M31.057,6.052C30.898,6.1,30.74,6.144,30.584,6.184c-0.965,0.249-1.053-0.079-0.355-0.805
	c0.314-0.325,0.588-0.678,0.83-1.061c0.537-0.856,0.07-1.229-0.844-0.829c-0.326,0.142-0.66,0.271-0.996,0.388
	C28.277,4.2,26.939,3.712,26.1,3.167c-1.062-0.688-2.266-1.033-3.617-1.033c-1.891,0-3.504,0.683-4.838,2.047
	c-1.333,1.365-2,3.016-2,4.951c0,0.265,0.015,0.533,0.044,0.805c0.048,0.444-0.682,0.766-1.666,0.623
	c-2.131-0.308-4.155-0.969-6.073-1.981C6.047,7.575,4.368,6.312,2.913,4.789C2.217,4.06,1.276,4.123,1.016,5.106
	C0.861,5.695,0.784,6.308,0.784,6.944c0,1.2,0.275,2.312,0.825,3.336c0.273,0.511,0.594,0.972,0.963,1.386
	c0.619,0.696,0.525,1.099-0.338,0.852c-0.861-0.247-1.494-0.615-1.494-0.591s0,0.044,0,0.044c0,1.689,0.519,3.174,1.556,4.452
	c0.64,0.789,1.381,1.396,2.228,1.824c0.892,0.453,1.306,0.705,0.808,0.77c-0.301,0.041-0.604,0.061-0.908,0.061
	c-0.207,0-0.422-0.01-0.648-0.029c-0.356-0.031-0.421,0.73,0.121,1.584c0.429,0.68,0.979,1.277,1.65,1.793
	c0.681,0.525,1.415,0.902,2.202,1.133c0.956,0.279,1.148,0.787,0.296,1.311c-2.112,1.297-4.448,1.945-7.009,1.945
	c-0.288,0-0.562-0.008-0.826-0.021c-0.456-0.021-0.151,0.389,0.73,0.863c2.754,1.475,5.735,2.211,8.945,2.211
	c2.427,0,4.707-0.393,6.838-1.18c2.13-0.787,3.95-1.842,5.462-3.164c1.51-1.32,2.812-2.842,3.906-4.561s1.908-3.514,2.443-5.383
	c0.537-1.87,0.807-3.745,0.807-5.622c0-0.17-0.002-0.321-0.006-0.456c-0.004-0.251,0.646-0.932,1.371-1.628
	c0.326-0.315,0.639-0.645,0.938-0.992C32.303,6.118,32.012,5.768,31.057,6.052z"/>
<g>
</g>
<g>
</g>
<g>
</g>
<g>
</g>
<g>
</g>
<g>
</g>
<g>
</g>
<g>
</g>
<g>
</g>
<g>
</g>
<g>
</g>
<g>
</g>
<g>
</g>
<g>
</g>
<g>
</g>
</svg>
