<?xml version="1.0" encoding="utf-8"?>
<!-- Generator: Adobe Illustrator 16.0.0, SVG Export Plug-In . SVG Version: 6.00 Build 0)  -->
<!DOCTYPE svg PUBLIC "-//W3C//DTD SVG 1.1//EN" "http://www.w3.org/Graphics/SVG/1.1/DTD/svg11.dtd">
<svg version="1.1" id="Layer_1" xmlns="http://www.w3.org/2000/svg" xmlns:xlink="http://www.w3.org/1999/xlink" x="0px" y="0px"
	 width="43.735px" height="32px" viewBox="0 0 43.735 32" enable-background="new 0 0 43.735 32" xml:space="preserve">
<path fill="#404040" d="M37.816,0.59c-9.961-0.69-21.763-0.877-31.903,0C2.764,0.954,0.608,4.899,0.373,7.896
	c-0.498,6.293-0.498,9.874,0,16.168c0.237,2.998,2.34,6.962,5.544,7.381c10.259,0.69,22.005,0.788,31.903,0
	c3.1-0.556,5.305-4.383,5.543-7.381c0.496-6.295,0.496-10.267,0-16.564C43.119,4.504,41.385,0.726,37.816,0.59z M16.397,23.964
	V7.828l13.667,8.067L16.397,23.964z"/>
<g>
</g>
<g>
</g>
<g>
</g>
<g>
</g>
<g>
</g>
<g>
</g>
<g>
</g>
<g>
</g>
<g>
</g>
<g>
</g>
<g>
</g>
<g>
</g>
<g>
</g>
<g>
</g>
<g>
</g>
</svg>
