<?xml version="1.0" encoding="utf-8"?>
<!-- Generator: Adobe Illustrator 16.0.0, SVG Export Plug-In . SVG Version: 6.00 Build 0)  -->
<!DOCTYPE svg PUBLIC "-//W3C//DTD SVG 1.1//EN" "http://www.w3.org/Graphics/SVG/1.1/DTD/svg11.dtd">
<svg version="1.1" id="Layer_1" xmlns="http://www.w3.org/2000/svg" xmlns:xlink="http://www.w3.org/1999/xlink" x="0px" y="0px"
	 width="32px" height="32px" viewBox="0 0 32 32" enable-background="new 0 0 32 32" xml:space="preserve">
<path fill="#646464" d="M4.26,23.467c-2.35,0-4.26,1.916-4.26,4.252c0,2.349,1.91,4.244,4.26,4.244c2.358,0,4.265-1.896,4.265-4.244
	C8.525,25.383,6.618,23.467,4.26,23.467z M0.006,10.874v6.132c3.993,0,7.748,1.562,10.577,4.392
	c2.825,2.821,4.383,6.594,4.383,10.603h6.161C21.126,20.35,11.649,10.874,0.006,10.874z M0.013,0v6.137
	C14.256,6.137,25.849,17.74,25.849,32H32C32,14.361,17.647,0,0.013,0z"/>
<g>
</g>
<g>
</g>
<g>
</g>
<g>
</g>
<g>
</g>
<g>
</g>
<g>
</g>
<g>
</g>
<g>
</g>
<g>
</g>
<g>
</g>
<g>
</g>
<g>
</g>
<g>
</g>
<g>
</g>
</svg>
